<svg version="1.1" xmlns="http://www.w3.org/2000/svg" xmlns:xlink="http://www.w3.org/1999/xlink" width="852.78823" height="477.95796" viewBox="0,0,852.78823,477.95796"><g transform="translate(-0.60588,-1.02102)"><g data-paper-data="{&quot;isPaintingLayer&quot;:true}" fill-rule="nonzero" stroke-linecap="butt" stroke-linejoin="miter" stroke-miterlimit="10" stroke-dasharray="" stroke-dashoffset="0" style="mix-blend-mode: normal"><path d="M10.60588,468.97898v-457.95796h832.78823v457.95796z" fill="none" stroke="#212121" stroke-width="20"/><path d="M283.60661,202.93168c0,43.53596 -34.62062,78.82883 -77.32733,78.82883c-42.7067,0 -77.32733,-35.29287 -77.32733,-78.82883c0,-43.53596 34.62062,-78.82883 77.32733,-78.82883c42.7067,0 77.32733,35.29287 77.32733,78.82883z" fill="#000000" stroke="#000000" stroke-width="15"/><path d="M630.45345,311.03979c0,28.60935 -22.18409,51.8018 -49.54955,51.8018c-27.36546,0 -49.54955,-23.19246 -49.54955,-51.8018c0,-28.60935 22.18409,-51.8018 49.54955,-51.8018c27.36546,0 49.54955,23.19246 49.54955,51.8018z" fill="#000000" stroke="#000000" stroke-width="15"/><path d="M803.12613,110.58934c0,11.60959 -44.36818,21.02102 -99.0991,21.02102c-54.73092,0 -99.0991,-9.41143 -99.0991,-21.02102c0,-11.60959 44.36818,-21.02102 99.0991,-21.02102c54.73092,0 99.0991,9.41143 99.0991,21.02102z" fill="none" stroke="#000000" stroke-width="15"/><path d="M258.08108,376.35511c0,24.87769 5.37796,45.04505 12.01201,45.04505c6.63405,0 12.01201,-20.16735 12.01201,-45.04505c0,-24.87769 -5.37796,-45.04505 -12.01201,-45.04505c-6.63405,0 -12.01201,20.16735 -12.01201,45.04505z" fill="none" stroke="#000000" stroke-width="15"/></g></g></svg>